# xmcd
#
# Track frame offsets:
#	150
#	20397
#	40040
#	86725
#	102670
#	127307
#
# Disc length: 1944 seconds
#
# Revision: 1
# Processed by: cddbd v1.4PL0 Copyright (c) Steve Scherf et al.
# Submitted via: audiograbber 1.81.02
#
DISCID=4d079606
DTITLE=Junko Ohashi - Bossa Nova
DYEAR=1900
DGENRE=Bossa Nova
TTITLE0=Mais Que Nada
TTITLE1=Wave
TTITLE2=Medley -Tribute To Sergio-
TTITLE3=The Girl From Ipanema
TTITLE4=This Masquerade
TTITLE5=How Insensitive
EXTD=
EXTT0=
EXTT1=
EXTT2=
EXTT3=
EXTT4=
EXTT5=
PLAYORDER=
